<svg id="Capa_1" enable-background="new 0 0 512 512" height="512" viewBox="0 0 512 512" width="512" xmlns="http://www.w3.org/2000/svg"><g><path id="XMLID_1089_" d="m428.332 135.275-11.167-33.466c-2.248-6.736-8.552-11.278-15.653-11.278h-291.024c-7.101 0-13.405 4.543-15.653 11.278l-11.167 33.466c-2.53 7.582 3.113 15.414 11.106 15.414h322.451c7.994 0 13.637-7.832 11.107-15.414z"/><path id="XMLID_835_" d="m135.615 491.767c1.28 11.519 11.016 20.233 22.606 20.233h193.718c11.59 0 21.326-8.715 22.606-20.233l34.565-311.077h-308.06z"/><path id="XMLID_831_" d="m225.89 42.998c0-7.167 5.831-12.998 12.998-12.998h44.189c7.167 0 12.998 5.831 12.998 12.998v17.533h30v-17.533c0-23.709-19.289-42.998-42.998-42.998h-44.189c-23.709 0-42.998 19.289-42.998 42.998v17.533h30z"/></g></svg>